<mxfile host="Electron" agent="Mozilla/5.0 (Windows NT 10.0; Win64; x64) AppleWebKit/537.36 (KHTML, like Gecko) draw.io/24.7.17 Chrome/128.0.6613.36 Electron/32.0.1 Safari/537.36" version="24.7.17">
  <diagram name="Page-1" id="4ud9Wbi8kwlZOUR9yjOl">
    <mxGraphModel dx="1480" dy="866" grid="1" gridSize="10" guides="1" tooltips="1" connect="1" arrows="1" fold="1" page="1" pageScale="1" pageWidth="850" pageHeight="1100" math="0" shadow="0">
      <root>
        <mxCell id="0" />
        <mxCell id="1" parent="0" />
        <mxCell id="A0NYJHEM2lqH-e4wBVeP-12" style="edgeStyle=orthogonalEdgeStyle;rounded=0;orthogonalLoop=1;jettySize=auto;html=1;exitX=0.5;exitY=1;exitDx=0;exitDy=0;entryX=0.5;entryY=0;entryDx=0;entryDy=0;" edge="1" parent="1" source="A0NYJHEM2lqH-e4wBVeP-1" target="A0NYJHEM2lqH-e4wBVeP-4">
          <mxGeometry relative="1" as="geometry" />
        </mxCell>
        <mxCell id="A0NYJHEM2lqH-e4wBVeP-1" value="Start" style="ellipse;whiteSpace=wrap;html=1;" vertex="1" parent="1">
          <mxGeometry x="330" y="10" width="120" height="80" as="geometry" />
        </mxCell>
        <mxCell id="A0NYJHEM2lqH-e4wBVeP-13" style="edgeStyle=orthogonalEdgeStyle;rounded=0;orthogonalLoop=1;jettySize=auto;html=1;exitX=0.5;exitY=1;exitDx=0;exitDy=0;entryX=0.5;entryY=0;entryDx=0;entryDy=0;" edge="1" parent="1" source="A0NYJHEM2lqH-e4wBVeP-4" target="A0NYJHEM2lqH-e4wBVeP-5">
          <mxGeometry relative="1" as="geometry" />
        </mxCell>
        <mxCell id="A0NYJHEM2lqH-e4wBVeP-4" value="Input&lt;div&gt;&amp;nbsp;projectedHours&lt;/div&gt;" style="shape=parallelogram;perimeter=parallelogramPerimeter;whiteSpace=wrap;html=1;fixedSize=1;" vertex="1" parent="1">
          <mxGeometry x="305" y="110" width="170" height="60" as="geometry" />
        </mxCell>
        <mxCell id="A0NYJHEM2lqH-e4wBVeP-14" style="edgeStyle=orthogonalEdgeStyle;rounded=0;orthogonalLoop=1;jettySize=auto;html=1;exitX=0.5;exitY=1;exitDx=0;exitDy=0;entryX=0.5;entryY=0;entryDx=0;entryDy=0;" edge="1" parent="1" source="A0NYJHEM2lqH-e4wBVeP-5" target="A0NYJHEM2lqH-e4wBVeP-6">
          <mxGeometry relative="1" as="geometry" />
        </mxCell>
        <mxCell id="A0NYJHEM2lqH-e4wBVeP-5" value="Input wholesaleCost" style="shape=parallelogram;perimeter=parallelogramPerimeter;whiteSpace=wrap;html=1;fixedSize=1;" vertex="1" parent="1">
          <mxGeometry x="305" y="200" width="170" height="60" as="geometry" />
        </mxCell>
        <mxCell id="A0NYJHEM2lqH-e4wBVeP-15" style="edgeStyle=orthogonalEdgeStyle;rounded=0;orthogonalLoop=1;jettySize=auto;html=1;exitX=0.5;exitY=1;exitDx=0;exitDy=0;entryX=0.5;entryY=0;entryDx=0;entryDy=0;" edge="1" parent="1" source="A0NYJHEM2lqH-e4wBVeP-6" target="A0NYJHEM2lqH-e4wBVeP-7">
          <mxGeometry relative="1" as="geometry" />
        </mxCell>
        <mxCell id="A0NYJHEM2lqH-e4wBVeP-6" value="totalLaborCost &lt;span class=&quot;hljs-operator&quot;&gt;=&lt;/span&gt; projectedHours &lt;span class=&quot;hljs-operator&quot;&gt;*&lt;/span&gt; 30" style="rounded=0;whiteSpace=wrap;html=1;" vertex="1" parent="1">
          <mxGeometry x="310" y="290" width="160" height="60" as="geometry" />
        </mxCell>
        <mxCell id="A0NYJHEM2lqH-e4wBVeP-16" style="edgeStyle=orthogonalEdgeStyle;rounded=0;orthogonalLoop=1;jettySize=auto;html=1;exitX=0.5;exitY=1;exitDx=0;exitDy=0;" edge="1" parent="1" source="A0NYJHEM2lqH-e4wBVeP-7" target="A0NYJHEM2lqH-e4wBVeP-9">
          <mxGeometry relative="1" as="geometry" />
        </mxCell>
        <mxCell id="A0NYJHEM2lqH-e4wBVeP-7" value="totalMaterialsCost &lt;span class=&quot;hljs-operator&quot;&gt;=&lt;/span&gt; wholesaleCost &lt;span class=&quot;hljs-operator&quot;&gt;* 120%&lt;/span&gt;" style="rounded=0;whiteSpace=wrap;html=1;" vertex="1" parent="1">
          <mxGeometry x="310" y="380" width="160" height="60" as="geometry" />
        </mxCell>
        <mxCell id="A0NYJHEM2lqH-e4wBVeP-18" style="edgeStyle=orthogonalEdgeStyle;rounded=0;orthogonalLoop=1;jettySize=auto;html=1;exitX=0.5;exitY=1;exitDx=0;exitDy=0;" edge="1" parent="1" source="A0NYJHEM2lqH-e4wBVeP-8" target="A0NYJHEM2lqH-e4wBVeP-10">
          <mxGeometry relative="1" as="geometry" />
        </mxCell>
        <mxCell id="A0NYJHEM2lqH-e4wBVeP-8" value="Output totalCost" style="shape=parallelogram;perimeter=parallelogramPerimeter;whiteSpace=wrap;html=1;fixedSize=1;" vertex="1" parent="1">
          <mxGeometry x="310" y="550" width="160" height="60" as="geometry" />
        </mxCell>
        <mxCell id="A0NYJHEM2lqH-e4wBVeP-17" style="edgeStyle=orthogonalEdgeStyle;rounded=0;orthogonalLoop=1;jettySize=auto;html=1;exitX=0.5;exitY=1;exitDx=0;exitDy=0;" edge="1" parent="1" source="A0NYJHEM2lqH-e4wBVeP-9" target="A0NYJHEM2lqH-e4wBVeP-8">
          <mxGeometry relative="1" as="geometry" />
        </mxCell>
        <mxCell id="A0NYJHEM2lqH-e4wBVeP-9" value="totalCost &lt;span class=&quot;hljs-operator&quot;&gt;=&lt;/span&gt; totalLaborCost &lt;span class=&quot;hljs-operator&quot;&gt;+&lt;/span&gt; totalMaterialsCost" style="rounded=0;whiteSpace=wrap;html=1;" vertex="1" parent="1">
          <mxGeometry x="310" y="470" width="160" height="60" as="geometry" />
        </mxCell>
        <mxCell id="A0NYJHEM2lqH-e4wBVeP-19" style="edgeStyle=orthogonalEdgeStyle;rounded=0;orthogonalLoop=1;jettySize=auto;html=1;exitX=0.5;exitY=1;exitDx=0;exitDy=0;" edge="1" parent="1" source="A0NYJHEM2lqH-e4wBVeP-10" target="A0NYJHEM2lqH-e4wBVeP-11">
          <mxGeometry relative="1" as="geometry" />
        </mxCell>
        <mxCell id="A0NYJHEM2lqH-e4wBVeP-10" value="Display &quot;End of program&quot;&amp;nbsp;" style="shape=parallelogram;perimeter=parallelogramPerimeter;whiteSpace=wrap;html=1;fixedSize=1;" vertex="1" parent="1">
          <mxGeometry x="310" y="640" width="160" height="60" as="geometry" />
        </mxCell>
        <mxCell id="A0NYJHEM2lqH-e4wBVeP-11" value="END" style="ellipse;whiteSpace=wrap;html=1;" vertex="1" parent="1">
          <mxGeometry x="330" y="730" width="120" height="80" as="geometry" />
        </mxCell>
      </root>
    </mxGraphModel>
  </diagram>
</mxfile>
